<svg xmlns="http://www.w3.org/2000/svg" xmlns:svg="http://www.w3.org/2000/svg" id="svg8" width="210mm" height="297mm" version="1.1" viewBox="0 0 210 297"><metadata id="metadata5"/><g id="layer1"><g id="g1403"><rect style="fill:#0ff;fill-rule:evenodd;stroke-width:.656051" id="rect1077" width="1531.047" height="720" x="-166.162" y="11.117"/><path style="opacity:1;fill:#280b0b;fill-opacity:1;fill-rule:evenodd;stroke:none;stroke-width:.264583;stroke-linejoin:round" id="path1095" d="m -170.23269,1102.5029 -253.1284,-8.0603 -253.12839,-8.0602 133.54459,-215.18552 133.5446,-215.18548 119.5838,223.24575 z" transform="rotate(-2.0247132,-13026.123,-22177.753)"/><path id="path1087" d="m 482.38867,1999.7441 a 647.21203,413.5815 0 0 0 -646.43555,413.5821 647.21203,413.5815 0 0 0 302.28126,349.9511 H 828.0918 a 647.21203,413.5815 0 0 0 302.2852,-349.9511 647.21203,413.5815 0 0 0 -647.21294,-413.5821 647.21203,413.5815 0 0 0 -0.77539,0 z" transform="scale(0.26458333)" style="opacity:1;fill:#25d225;fill-opacity:.995321;fill-rule:evenodd;stroke:none;stroke-width:.999999;stroke-linejoin:round"/><path id="path1097" d="m 3566.9844,1195.7285 -475.6875,830.625 -422.0254,736.9238 h 1810.0781 l -430.8672,-740.2812 z" transform="scale(0.26458333)" style="opacity:1;fill:#280b0b;fill-opacity:1;fill-rule:evenodd;stroke:none;stroke-width:.999999;stroke-linejoin:round"/><ellipse style="opacity:1;fill:#25d225;fill-opacity:.992645;fill-rule:evenodd;stroke:none;stroke-width:.264583;stroke-linejoin:round" id="ellipse1089" cx="729.199" cy="565.097" rx="171.242" ry="109.427"/><path id="path1079" d="m 4645.6562,1570.5176 c -203.6526,2.4427 -453.2211,396.777 -732.125,249.7636 -318.7478,-168.0153 -797.5559,372.1191 -1737.8945,-6.041 C 1235.298,1436.0799 1228.054,2418.954 294.89648,2174.7578 -163.6964,2054.7496 -452.66433,2152.127 -628.01367,2282.1973 v 481.08 H 5153.0762 v -646.9902 c -144.6191,-215.3192 -315.2117,-447.2382 -423,-520.1035 -27.1707,-18.3674 -55.3267,-26.015 -84.42,-25.666 z" transform="scale(0.26458333)" style="fill:green;fill-opacity:1;stroke:#000;stroke-width:.773858px;stroke-linecap:butt;stroke-linejoin:miter;stroke-opacity:1"/><g id="g1138" transform="matrix(0.36590171,0,0,0.36590171,416.42228,390.15375)" style="fill:olive"><ellipse style="opacity:1;fill:olive;fill-opacity:.992645;fill-rule:evenodd;stroke:none;stroke-width:.264583;stroke-linejoin:round" id="ellipse1130" cx="-449.346" cy="363.353" rx="26.127" ry="52.981"/><ellipse style="opacity:1;fill:olive;fill-opacity:.992645;fill-rule:evenodd;stroke:none;stroke-width:.264583;stroke-linejoin:round" id="ellipse1132" cx="-44.58" cy="549.081" rx="26.127" ry="52.981" transform="rotate(43.254827)"/><ellipse style="opacity:1;fill:olive;fill-opacity:.992645;fill-rule:evenodd;stroke:none;stroke-width:.264583;stroke-linejoin:round" id="ellipse1134" cx="-603.907" cy="-163.458" rx="26.127" ry="52.981" transform="rotate(-52.172748)"/><ellipse style="opacity:1;fill:olive;fill-opacity:.992645;fill-rule:evenodd;stroke:none;stroke-width:.327752;stroke-linejoin:round" id="ellipse1136" cx="-450.109" cy="475.322" rx="26.127" ry="81.299"/></g><g id="g1168" transform="matrix(0.36590171,0,0,0.36590171,899.55192,347.95772)" style="fill:olive"><ellipse style="opacity:1;fill:olive;fill-opacity:.992645;fill-rule:evenodd;stroke:none;stroke-width:.264583;stroke-linejoin:round" id="ellipse1160" cx="-449.346" cy="363.353" rx="26.127" ry="52.981"/><ellipse style="opacity:1;fill:olive;fill-opacity:.992645;fill-rule:evenodd;stroke:none;stroke-width:.264583;stroke-linejoin:round" id="ellipse1162" cx="-44.58" cy="549.081" rx="26.127" ry="52.981" transform="rotate(43.254827)"/><ellipse style="opacity:1;fill:olive;fill-opacity:.992645;fill-rule:evenodd;stroke:none;stroke-width:.264583;stroke-linejoin:round" id="ellipse1164" cx="-603.907" cy="-163.458" rx="26.127" ry="52.981" transform="rotate(-52.172748)"/><ellipse style="opacity:1;fill:olive;fill-opacity:.992645;fill-rule:evenodd;stroke:none;stroke-width:.327752;stroke-linejoin:round" id="ellipse1166" cx="-450.109" cy="475.322" rx="26.127" ry="81.299"/></g><path id="path1101" d="m 4645.6562,1570.5176 c -203.6526,2.4427 -453.2211,396.777 -732.125,249.7636 -318.7478,-168.0153 -797.5559,372.1191 -1737.8945,-6.041 C 1235.298,1436.0799 1228.054,2418.954 294.89648,2174.7578 -163.6964,2054.7496 -452.66433,2152.127 -628.01367,2282.1973 v 481.08 H 5153.0762 v -646.9902 c -144.6191,-215.3192 -315.2117,-447.2382 -423,-520.1035 -27.1707,-18.3674 -55.3267,-26.015 -84.42,-25.666 z" transform="scale(0.26458333)" style="fill:green;fill-opacity:1;stroke:#000;stroke-width:.773858px;stroke-linecap:butt;stroke-linejoin:miter;stroke-opacity:1"/><path style="fill:#fff;stroke:none;stroke-width:.264583px;stroke-linecap:butt;stroke-linejoin:miter;stroke-opacity:1" id="path1107" d="m 389.98164,196 -112.8956,191.03256 98.36133,-80.61437 14.22884,66.51898 44.65392,-24.01504 75.5011,51.27117 z"/><path id="path1111" d="m 3566.9844,1195.7285 -174.6016,304.8809 84.7695,145.875 69.7598,-170.1973 110.125,159.1016 58.1113,-185.0996 z" transform="scale(0.26458333)" style="fill:#fff;stroke:none;stroke-width:.999999px;stroke-linecap:butt;stroke-linejoin:miter;stroke-opacity:1"/><g id="g1128" transform="matrix(0.46400336,0,0,0.46400336,168.93574,371.42258)" style="fill:olive"><ellipse style="opacity:1;fill:olive;fill-opacity:.992645;fill-rule:evenodd;stroke:none;stroke-width:.264583;stroke-linejoin:round" id="path1116" cx="-449.346" cy="363.353" rx="26.127" ry="52.981"/><ellipse style="opacity:1;fill:olive;fill-opacity:.992645;fill-rule:evenodd;stroke:none;stroke-width:.264583;stroke-linejoin:round" id="ellipse1118" cx="-44.58" cy="549.081" rx="26.127" ry="52.981" transform="rotate(43.254827)"/><ellipse style="opacity:1;fill:olive;fill-opacity:.992645;fill-rule:evenodd;stroke:none;stroke-width:.264583;stroke-linejoin:round" id="ellipse1120" cx="-603.907" cy="-163.458" rx="26.127" ry="52.981" transform="rotate(-52.172748)"/><ellipse style="opacity:1;fill:olive;fill-opacity:.992645;fill-rule:evenodd;stroke:none;stroke-width:.327752;stroke-linejoin:round" id="ellipse1122" cx="-450.109" cy="475.322" rx="26.127" ry="81.299"/></g><g id="g1148" transform="matrix(0.36590171,0,0,0.36590171,1038.7705,410.37886)" style="fill:olive"><ellipse style="opacity:1;fill:olive;fill-opacity:.992645;fill-rule:evenodd;stroke:none;stroke-width:.264583;stroke-linejoin:round" id="ellipse1140" cx="-449.346" cy="363.353" rx="26.127" ry="52.981"/><ellipse style="opacity:1;fill:olive;fill-opacity:.992645;fill-rule:evenodd;stroke:none;stroke-width:.264583;stroke-linejoin:round" id="ellipse1142" cx="-44.58" cy="549.081" rx="26.127" ry="52.981" transform="rotate(43.254827)"/><ellipse style="opacity:1;fill:olive;fill-opacity:.992645;fill-rule:evenodd;stroke:none;stroke-width:.264583;stroke-linejoin:round" id="ellipse1144" cx="-603.907" cy="-163.458" rx="26.127" ry="52.981" transform="rotate(-52.172748)"/><ellipse style="opacity:1;fill:olive;fill-opacity:.992645;fill-rule:evenodd;stroke:none;stroke-width:.327752;stroke-linejoin:round" id="ellipse1146" cx="-450.109" cy="475.322" rx="26.127" ry="81.299"/></g><g id="g1158" transform="matrix(0.36590171,0,0,0.36590171,630.56119,422.37519)" style="fill:olive"><ellipse style="opacity:1;fill:olive;fill-opacity:.992645;fill-rule:evenodd;stroke:none;stroke-width:.264583;stroke-linejoin:round" id="ellipse1150" cx="-449.346" cy="363.353" rx="26.127" ry="52.981"/><ellipse style="opacity:1;fill:olive;fill-opacity:.992645;fill-rule:evenodd;stroke:none;stroke-width:.264583;stroke-linejoin:round" id="ellipse1152" cx="-44.58" cy="549.081" rx="26.127" ry="52.981" transform="rotate(43.254827)"/><ellipse style="opacity:1;fill:olive;fill-opacity:.992645;fill-rule:evenodd;stroke:none;stroke-width:.264583;stroke-linejoin:round" id="ellipse1154" cx="-603.907" cy="-163.458" rx="26.127" ry="52.981" transform="rotate(-52.172748)"/><ellipse style="opacity:1;fill:olive;fill-opacity:.992645;fill-rule:evenodd;stroke:none;stroke-width:.327752;stroke-linejoin:round" id="ellipse1156" cx="-450.109" cy="475.322" rx="26.127" ry="81.299"/></g><g id="g1176" transform="matrix(0.21526225,0,0,0.21526225,212.9843,540.51524)"><path style="opacity:1;fill:#ff0;fill-opacity:.992645;fill-rule:evenodd;stroke:none;stroke-width:.264583;stroke-linejoin:round" id="path1170" d="m -460.29558,351.02752 -42.72392,-32.13721 -44.7809,65.32441 6.46968,-53.06861 -78.96304,-6.11919 49.1936,-20.9314 -34.18214,-71.4436 42.72392,32.13721 44.78089,-65.3244 -6.46967,53.06861 78.96304,6.11919 -49.1936,20.93139 z"/><ellipse style="opacity:1;fill:#fff;fill-opacity:.992645;fill-rule:evenodd;stroke:none;stroke-width:.218523;stroke-linejoin:round" id="path1172" cx="-535.394" cy="286.505" rx="20.307" ry="27.051"/></g><g id="g1182" transform="matrix(0.08454622,0,0,0.08454622,370.35353,598.41782)"><path style="opacity:1;fill:#ff0;fill-opacity:.992645;fill-rule:evenodd;stroke:none;stroke-width:.264583;stroke-linejoin:round" id="path1178" d="m -460.29558,351.02752 -42.72392,-32.13721 -44.7809,65.32441 6.46968,-53.06861 -78.96304,-6.11919 49.1936,-20.9314 -34.18214,-71.4436 42.72392,32.13721 44.78089,-65.3244 -6.46967,53.06861 78.96304,6.11919 -49.1936,20.93139 z"/><ellipse style="opacity:1;fill:#fff;fill-opacity:.992645;fill-rule:evenodd;stroke:none;stroke-width:.218523;stroke-linejoin:round" id="ellipse1180" cx="-535.394" cy="286.505" rx="20.307" ry="27.051"/></g><g id="g1188" transform="matrix(0.145619,0.02334706,-0.02334706,0.145619,638.65203,496.25975)"><path style="opacity:1;fill:#ff0;fill-opacity:.992645;fill-rule:evenodd;stroke:none;stroke-width:.264583;stroke-linejoin:round" id="path1184" d="m -460.29558,351.02752 -42.72392,-32.13721 -44.7809,65.32441 6.46968,-53.06861 -78.96304,-6.11919 49.1936,-20.9314 -34.18214,-71.4436 42.72392,32.13721 44.78089,-65.3244 -6.46967,53.06861 78.96304,6.11919 -49.1936,20.93139 z"/><ellipse style="opacity:1;fill:#fff;fill-opacity:.992645;fill-rule:evenodd;stroke:none;stroke-width:.218523;stroke-linejoin:round" id="ellipse1186" cx="-535.394" cy="286.505" rx="20.307" ry="27.051"/></g><g id="g1194" transform="matrix(0.16862388,0.02703543,-0.02703543,0.16862388,873.0085,546.9545)"><path style="opacity:1;fill:#ff0;fill-opacity:.992645;fill-rule:evenodd;stroke:none;stroke-width:.264583;stroke-linejoin:round" id="path1190" d="m -460.29558,351.02752 -42.72392,-32.13721 -44.7809,65.32441 6.46968,-53.06861 -78.96304,-6.11919 49.1936,-20.9314 -34.18214,-71.4436 42.72392,32.13721 44.78089,-65.3244 -6.46967,53.06861 78.96304,6.11919 -49.1936,20.93139 z"/><ellipse style="opacity:1;fill:#fff;fill-opacity:.992645;fill-rule:evenodd;stroke:none;stroke-width:.218523;stroke-linejoin:round" id="ellipse1192" cx="-535.394" cy="286.505" rx="20.307" ry="27.051"/></g><g id="g1200" transform="matrix(0.12797503,0.02051821,-0.02051821,0.12797503,1170.6033,560.4327)"><path style="opacity:1;fill:#ff0;fill-opacity:.992645;fill-rule:evenodd;stroke:none;stroke-width:.264583;stroke-linejoin:round" id="path1196" d="m -460.29558,351.02752 -42.72392,-32.13721 -44.7809,65.32441 6.46968,-53.06861 -78.96304,-6.11919 49.1936,-20.9314 -34.18214,-71.4436 42.72392,32.13721 44.78089,-65.3244 -6.46967,53.06861 78.96304,6.11919 -49.1936,20.93139 z"/><ellipse style="opacity:1;fill:#fff;fill-opacity:.992645;fill-rule:evenodd;stroke:none;stroke-width:.218523;stroke-linejoin:round" id="ellipse1198" cx="-535.394" cy="286.505" rx="20.307" ry="27.051"/></g><g id="g1206" transform="matrix(0.12797503,0.02051821,-0.02051821,0.12797503,1303.6814,593.81515)"><path style="opacity:1;fill:#ff0;fill-opacity:.992645;fill-rule:evenodd;stroke:none;stroke-width:.264583;stroke-linejoin:round" id="path1202" d="m -460.29558,351.02752 -42.72392,-32.13721 -44.7809,65.32441 6.46968,-53.06861 -78.96304,-6.11919 49.1936,-20.9314 -34.18214,-71.4436 42.72392,32.13721 44.78089,-65.3244 -6.46967,53.06861 78.96304,6.11919 -49.1936,20.93139 z"/><ellipse style="opacity:1;fill:#fff;fill-opacity:.992645;fill-rule:evenodd;stroke:none;stroke-width:.218523;stroke-linejoin:round" id="ellipse1204" cx="-535.394" cy="286.505" rx="20.307" ry="27.051"/></g><g id="g1310"><ellipse style="opacity:1;fill:#fff;fill-opacity:.992645;fill-rule:evenodd;stroke:none;stroke-width:.230221;stroke-linejoin:round" id="path1284" cx="39.691" cy="214.555" rx="85.231" ry="65.847"/><ellipse style="opacity:1;fill:#fff;fill-opacity:.992645;fill-rule:evenodd;stroke:none;stroke-width:.230221;stroke-linejoin:round" id="ellipse1286" cx="-52.617" cy="167.269" rx="85.231" ry="65.847"/><ellipse style="opacity:1;fill:#fff;fill-opacity:.992645;fill-rule:evenodd;stroke:none;stroke-width:.139623;stroke-linejoin:round" id="ellipse1288" cx="55.096" cy="147.786" rx="51.69" ry="39.935"/></g><path id="ellipse1290" d="m 3496.6777,42.017578 a 322.13408,248.87225 0 0 0 -57.8183,142.261722 322.13408,248.87225 0 0 0 322.1347,248.87109 322.13408,248.87225 0 0 0 39.1192,-1.84375 322.13408,248.87225 0 0 0 309.7617,180.5625 322.13408,248.87225 0 0 0 322.1348,-248.87109 322.13408,248.87225 0 0 0 -95.0176,-176.49219 195.36563,150.93431 0 0 0 26.4726,-75.86524 195.36563,150.93431 0 0 0 -21.3613,-68.623042 z" transform="scale(0.26458333)" style="opacity:1;fill:#fff;fill-opacity:.992645;fill-rule:evenodd;stroke:none;stroke-width:.870127;stroke-linejoin:round"/><path id="ellipse1296" d="m 1525.5957,42.017578 a 322.13408,248.87225 0 0 0 -48,130.703122 322.13408,248.87225 0 0 0 322.1328,248.87305 322.13408,248.87225 0 0 0 39.1211,-1.84375 322.13408,248.87225 0 0 0 309.7598,180.5625 322.13408,248.87225 0 0 0 322.1347,-248.87305 322.13408,248.87225 0 0 0 -95.0175,-176.49023 195.36563,150.93431 0 0 0 26.4746,-75.865236 195.36563,150.93431 0 0 0 -14.502,-57.066406 z" transform="scale(0.26458333)" style="fill:#fff;fill-opacity:.992645;fill-rule:evenodd;stroke:none;stroke-width:.870127;stroke-linejoin:round"/><ellipse style="opacity:1;fill:#ff0;fill-opacity:.992645;fill-rule:evenodd;stroke:none;stroke-width:.173442;stroke-linejoin:round" id="path1342" cx="1285.555" cy="149.688" rx="28.226" ry="26.906"/></g></g></svg>